<svg width="405" height="411" viewBox="0 0 482 411" fill="none" xmlns="http://www.w3.org/2000/svg">
    <ellipse cx="247.05" cy="158.049" rx="157.95" ry="158.049" fill="#7066CB"/>
    <path d="M151.905 146.341C153.275 146.791 154.522 147.15 155.645 147.419C157.824 138.66 160.306 128.316 163.091 116.39L154.971 115.514C154.454 114.099 154.196 112.493 154.196 110.696C154.196 109.326 154.353 107.989 154.668 106.687C157.925 106.058 161.676 105.608 165.921 105.339C170.188 105.047 173.849 104.901 176.904 104.901C179.105 104.901 180.756 104.912 181.857 104.935L183.979 106.147C187.753 116.502 191.582 130.506 195.468 148.161C195.513 148.34 195.592 148.7 195.704 149.239C195.839 149.778 195.94 150.294 196.007 150.789C196.075 151.26 196.108 151.709 196.108 152.136C196.108 154.023 195.434 155.55 194.087 156.718C192.2 157.459 189.92 157.83 187.247 157.83C185.99 157.83 184.721 157.695 183.44 157.426C182.16 157.156 181.295 156.741 180.846 156.179L181.25 147.487L180.408 142.972C178.948 143.062 177.23 143.107 175.253 143.107C173.142 143.107 171.165 143.04 169.324 142.905L168.919 144.724C168.043 148.632 167.325 151.406 166.763 153.046C166.224 154.686 165.415 155.898 164.337 156.685C163.282 157.471 161.698 157.864 159.587 157.864C158.217 157.864 156.835 157.684 155.443 157.325C154.05 156.988 152.792 156.527 151.669 155.943C150.546 155.359 149.704 154.73 149.142 154.057C149.142 152.439 149.39 150.901 149.884 149.441C150.378 147.981 151.052 146.948 151.905 146.341ZM175.523 116.693H173.973L171.547 133.303H179.094L175.523 116.693ZM198.601 113.088C198.265 111.718 198.04 110.583 197.928 109.685C197.815 108.764 197.77 107.708 197.793 106.518C198.265 105.912 198.995 105.305 199.983 104.699C200.994 104.07 202.161 103.542 203.487 103.115C204.834 102.688 206.227 102.475 207.664 102.475C210.472 102.475 212.628 103.183 214.133 104.598C215.638 106.013 216.391 108.102 216.391 110.864C216.391 112.841 216.222 116.019 215.885 120.399C215.548 124.779 215.065 129.439 214.436 134.381C213.807 139.3 213.089 143.601 212.28 147.285L212.348 147.352L217.334 145.263C219.086 146.768 220.108 148.767 220.4 151.26C220.4 151.417 219.894 152.069 218.884 153.214C217.873 154.337 216.536 155.393 214.874 156.381C213.235 157.347 211.348 157.83 209.214 157.83C206.991 157.83 205.182 157.212 203.79 155.977C202.42 154.742 201.768 152.63 201.836 149.643L201.903 143.579C201.926 137.829 201.982 132.651 202.072 128.047C202.184 123.442 202.409 118.692 202.745 113.795L198.601 113.088ZM233.977 134.954C235.303 134.954 236.763 135.088 238.357 135.358C239.974 135.627 241.457 135.953 242.805 136.335V135.291C242.805 134.594 242.782 133.819 242.737 132.966C242.715 132.112 242.67 131.551 242.602 131.281C242.4 130.899 241.816 130.506 240.85 130.102C239.907 129.698 238.357 129.496 236.201 129.496C234.876 129.496 233.506 129.664 232.091 130.001C230.698 130.315 229.148 130.742 227.441 131.281C226.52 129.754 225.779 128.305 225.218 126.935C224.679 125.542 224.409 124.15 224.409 122.757C224.409 122.331 224.443 121.904 224.51 121.477C228.149 118.647 232.854 117.232 238.627 117.232C241.816 117.232 244.646 117.591 247.117 118.31C249.588 119.029 251.62 120.421 253.215 122.488C254.81 124.554 255.607 127.485 255.607 131.281C255.607 134.987 255.169 138.581 254.293 142.062C253.44 145.521 253.002 147.285 252.979 147.352L257.865 145.263C258.516 145.959 259.089 146.813 259.583 147.824C260.099 148.812 260.425 149.958 260.56 151.26C260.245 151.934 259.56 152.799 258.505 153.854C257.449 154.888 256.158 155.809 254.63 156.617C253.103 157.426 251.508 157.83 249.846 157.83C247.982 157.83 246.567 157.28 245.601 156.179C244.658 155.079 244.186 153.652 244.186 151.9C244.186 150.912 244.332 149.913 244.624 148.902L243.613 148.599C242.984 152.147 241.648 154.573 239.604 155.876C237.56 157.179 235.303 157.83 232.832 157.83C231.215 157.83 229.654 157.381 228.149 156.482C226.644 155.562 225.42 154.236 224.476 152.507C223.533 150.755 223.061 148.711 223.061 146.375C223.061 142.646 223.994 139.816 225.858 137.885C227.722 135.931 230.429 134.954 233.977 134.954ZM237.818 147.79C238.38 147.678 239.042 147.363 239.806 146.847C240.592 146.33 241.288 145.712 241.895 144.994C242.501 144.275 242.861 143.59 242.973 142.938L242.771 142.13C241.58 141.973 240.311 141.894 238.964 141.894C237.818 141.894 237.032 141.984 236.605 142.164C235.887 142.972 235.527 143.871 235.527 144.859C235.527 145.578 235.707 146.229 236.066 146.813C236.448 147.397 237.032 147.723 237.818 147.79ZM262.379 137.716C262.379 134.302 262.851 131.034 263.794 127.912C264.76 124.79 266.265 122.229 268.309 120.23C270.375 118.231 272.97 117.232 276.092 117.232C279.596 117.232 282.942 118.344 286.132 120.567L286.671 120.23C286.603 117.603 286.278 115.222 285.694 113.088L278.854 112.65C278.54 112.246 278.293 111.65 278.113 110.864C277.933 110.056 277.844 109.225 277.844 108.371C277.844 107.226 277.978 106.237 278.248 105.406C279.596 104.44 281.325 103.71 283.436 103.216C285.548 102.722 287.659 102.475 289.77 102.475C292.106 102.475 293.87 102.969 295.06 103.958C296.25 104.923 297.048 106.395 297.452 108.371C297.879 110.325 298.092 113.043 298.092 116.524C298.092 121.106 297.901 126.306 297.519 132.124C297.138 137.941 296.643 142.691 296.037 146.375L295.902 146.948L299.81 145.263C300.462 145.959 301.035 146.813 301.529 147.824C302.045 148.812 302.371 149.958 302.506 151.26C302.191 151.934 301.506 152.799 300.451 153.854C299.395 154.888 298.103 155.809 296.576 156.617C295.049 157.426 293.454 157.83 291.792 157.83C289.928 157.83 288.49 157.28 287.479 156.179C286.491 155.056 285.997 153.63 285.997 151.9C285.997 151.451 286.109 150.53 286.334 149.138C286.581 147.745 286.783 146.779 286.94 146.24L285.93 145.937C284.784 149.958 283.268 152.945 281.381 154.899C279.495 156.853 277.159 157.83 274.373 157.83C271.386 157.83 268.994 156.842 267.197 154.865C265.423 152.866 264.176 150.362 263.457 147.352C262.739 144.342 262.379 141.13 262.379 137.716ZM285.492 137.11C285.626 136.301 285.694 135.358 285.694 134.28C285.694 133.583 285.66 132.921 285.593 132.292C285.548 131.663 285.492 131.214 285.424 130.944C284.526 130.293 283.504 129.833 282.358 129.563C281.235 129.293 280.202 129.159 279.259 129.159C278.675 129.159 278.046 129.215 277.372 129.327C276.923 129.776 276.563 130.753 276.294 132.258C276.024 133.741 275.89 135.414 275.89 137.278C275.89 139.277 276.024 141.22 276.294 143.107C276.586 144.971 276.99 146.431 277.507 147.487C277.866 147.487 278.562 146.937 279.596 145.836C280.651 144.713 281.741 143.343 282.864 141.726C283.987 140.086 284.863 138.547 285.492 137.11ZM243.647 223.716C243.647 220.302 244.119 217.034 245.062 213.912C246.028 210.79 247.533 208.229 249.577 206.23C251.643 204.231 254.237 203.232 257.359 203.232C260.863 203.232 264.21 204.344 267.399 206.567L267.938 206.23C267.871 203.603 267.545 201.222 266.961 199.088L260.122 198.65C259.807 198.246 259.56 197.65 259.381 196.864C259.201 196.056 259.111 195.225 259.111 194.371C259.111 193.226 259.246 192.237 259.516 191.406C260.863 190.44 262.593 189.71 264.704 189.216C266.815 188.722 268.927 188.475 271.038 188.475C273.374 188.475 275.137 188.969 276.328 189.958C277.518 190.923 278.315 192.395 278.72 194.371C279.146 196.325 279.36 199.043 279.36 202.524C279.36 207.106 279.169 212.306 278.787 218.124C278.405 223.941 277.911 228.691 277.305 232.375L277.17 232.948L281.078 231.263C281.729 231.959 282.302 232.813 282.796 233.824C283.313 234.812 283.639 235.958 283.773 237.26C283.459 237.934 282.774 238.799 281.718 239.854C280.662 240.888 279.371 241.809 277.844 242.617C276.316 243.426 274.722 243.83 273.059 243.83C271.195 243.83 269.758 243.28 268.747 242.179C267.759 241.056 267.265 239.63 267.265 237.9C267.265 237.451 267.377 236.53 267.601 235.138C267.849 233.745 268.051 232.779 268.208 232.24L267.197 231.937C266.052 235.958 264.536 238.945 262.649 240.899C260.762 242.853 258.426 243.83 255.641 243.83C252.654 243.83 250.262 242.842 248.465 240.865C246.69 238.866 245.444 236.362 244.725 233.352C244.006 230.342 243.647 227.13 243.647 223.716ZM266.759 223.11C266.894 222.301 266.961 221.358 266.961 220.28C266.961 219.583 266.928 218.921 266.86 218.292C266.815 217.663 266.759 217.214 266.692 216.944C265.793 216.293 264.771 215.833 263.626 215.563C262.503 215.293 261.47 215.159 260.526 215.159C259.942 215.159 259.313 215.215 258.64 215.327C258.19 215.776 257.831 216.753 257.561 218.258C257.292 219.741 257.157 221.414 257.157 223.278C257.157 225.277 257.292 227.22 257.561 229.107C257.853 230.971 258.258 232.431 258.774 233.487C259.134 233.487 259.83 232.937 260.863 231.836C261.919 230.713 263.008 229.343 264.131 227.726C265.254 226.086 266.13 224.547 266.759 223.11ZM287.614 194.809C287.614 192.833 288.254 191.227 289.535 189.991C290.837 188.756 292.904 188.138 295.734 188.138C298.564 188.138 300.619 188.756 301.899 189.991C303.202 191.227 303.853 192.833 303.853 194.809C303.853 195.932 303.46 196.965 302.674 197.909C301.911 198.852 300.9 199.604 299.642 200.166C298.384 200.705 297.081 200.975 295.734 200.975C294.274 200.975 292.915 200.66 291.657 200.031C290.422 199.38 289.433 198.571 288.692 197.605C287.974 196.64 287.614 195.708 287.614 194.809ZM285.963 214.081C285.671 212.98 285.469 211.98 285.357 211.082C285.245 210.161 285.188 209.207 285.188 208.218L285.222 207.275C285.694 206.668 286.424 206.062 287.412 205.456C288.423 204.827 289.591 204.299 290.916 203.872C292.264 203.445 293.656 203.232 295.094 203.232C298.238 203.232 300.473 203.939 301.798 205.354C303.123 206.77 303.786 208.971 303.786 211.958C303.786 213.755 303.528 216.102 303.011 219C302.517 221.897 301.911 224.716 301.192 227.456C300.495 230.174 299.889 232.117 299.372 233.285L299.44 233.352L304.426 231.533C305.325 232.296 305.998 233.139 306.448 234.06C306.919 234.98 307.223 236.047 307.357 237.26C307.357 237.417 306.863 238.069 305.875 239.214C304.887 240.337 303.573 241.393 301.933 242.381C300.316 243.347 298.44 243.83 296.307 243.83C294.15 243.83 292.398 243.246 291.051 242.078C289.725 240.91 289.063 238.911 289.063 236.081C289.063 232.779 289.153 229.275 289.332 225.569C289.512 221.863 289.793 218.27 290.175 214.788L285.963 214.081ZM313.422 231.432C313.422 227.771 313.467 225.008 313.557 223.144C313.646 221.257 313.882 218.494 314.264 214.855L310.356 214.35C309.884 212.89 309.57 211.587 309.412 210.442C309.278 209.296 309.21 207.814 309.21 205.995C309.57 205.68 310.165 205.31 310.996 204.883C311.849 204.434 312.86 204.052 314.028 203.737C315.196 203.4 316.375 203.232 317.566 203.232C320.284 203.232 322.204 203.816 323.327 204.984C324.473 206.152 325.045 207.904 325.045 210.24C325.045 211.542 324.854 213.306 324.473 215.529C323.844 219.101 323.529 220.976 323.529 221.156C323.529 221.268 323.608 221.38 323.765 221.493C323.922 221.583 324.091 221.627 324.27 221.627C324.473 221.627 324.607 221.549 324.675 221.392C325.573 217.82 326.472 214.833 327.37 212.43C328.268 210.026 329.627 207.893 331.447 206.028C333.266 204.164 335.624 203.232 338.522 203.232C342.116 203.232 344.699 204.333 346.271 206.534C347.843 208.712 348.629 211.464 348.629 214.788C348.629 217.753 348.281 220.617 347.585 223.379C346.889 226.12 346.024 228.983 344.991 231.971C345.036 231.858 344.878 232.296 344.519 233.285L344.586 233.352L349.505 231.331C351.257 232.835 352.279 234.834 352.571 237.328C352.571 237.485 352.066 238.125 351.055 239.248C350.067 240.371 348.753 241.416 347.113 242.381C345.474 243.347 343.587 243.83 341.453 243.83C339.319 243.83 337.578 243.257 336.231 242.112C334.883 240.966 334.209 239.012 334.209 236.25C334.209 234.048 334.299 231.106 334.479 227.422C334.659 223.739 334.838 220.774 335.018 218.528C334.434 217.899 333.715 217.562 332.862 217.517C332.076 218.528 330.919 220.549 329.391 223.582C327.864 226.614 326.786 228.882 326.157 230.387C326.112 230.702 326.09 231.005 326.09 231.297C326.09 232.42 326.258 233.936 326.595 235.845C326.932 237.732 327.348 239.495 327.842 241.135C327.437 241.898 326.606 242.539 325.349 243.055C324.091 243.572 322.541 243.83 320.699 243.83C319.037 243.83 317.701 243.695 316.69 243.426C315.702 243.156 315.005 242.875 314.601 242.583C314.197 242.269 313.995 242.078 313.995 242.011C313.972 241.809 313.916 241.281 313.826 240.427C313.736 239.551 313.646 238.338 313.557 236.789C313.467 235.216 313.422 233.431 313.422 231.432Z" fill="#F1E5F6"/>
    <path d="M187.609 202.861C199.863 200.014 210.854 211.012 208.008 223.273L181.775 336.299C178.758 349.299 162.635 353.914 153.204 344.477L66.4813 257.7C57.0503 248.263 61.662 232.13 74.6538 229.111L187.609 202.861Z" fill="#D9D9D9"/>
</svg>